# Motion Analysis HTR (source:MACFileLib v1.10)
[Header]
# KeyWord<space>Value<CR>
FileType htr
DataType HTRS
FileVersion 1
NumSegments 39
NumFrames 4
DataFrameRate 30
EulerRotationOrder ZYX
CalibrationUnits mm
RotationUnits Degrees
GlobalAxisofGravity Y
BoneLengthAxis Y
ScaleFactor 1.00
[SegmentNames&Hierarchy]
# ObjectName<tab>ParentObjectName<CR>
Root	GLOBAL
Spine1	Root
Spine2	Spine1
Neck	Spine2
Head	Neck
Shoulder.L	Spine2
UpArm.L	Shoulder.L
LowArm.L	UpArm.L
Hand.L	LowArm.L
Mid1.L	Hand.L
Mid2.L	Mid1.L
Rin1.L	Hand.L
Rin2.L	Rin1.L
Pin1.L	Hand.L
Pin2.L	Pin1.L
Ind1.L	Hand.L
Ind2.L	Ind1.L
Thu1.L	Hand.L
Thu2.L	Thu1.L
Shoulder.R.	Spine2
UpArm.R.	Shoulder.R.
LowArm.R.	UpArm.R.
Hand.R.	LowArm.R.
Mid1.R	Hand.R.
Mid2.R	Mid1.R
Rin1.R	Hand.R.
Rin2.R	Rin1.R
Pin1.R	Hand.R.
Pin2.R	Pin1.R
Ind1.R.	Hand.R.
Ind2.R.	Ind1.R.
Thu1.R.	Hand.R.
Thu2.R.	Thu1.R.
UpLeg.L	Root
LowLeg.L	UpLeg.L
Foot.L	LowLeg.L
UpLeg.R.	Root
LowLeg.R.	UpLeg.R.
Foot.R.	LowLeg.R.
[BasePosition]
# ObjectName<tab>Tx<tab>Ty<tab>Tz<tab>Rx<tab>Ry<tab>Rz<tab>BoneLength<CR>
Root	0.000000	30235.292665	-0.004026	-90.000000	-89.999997	0.000000	312.175059
Spine1	0.000000	0.000000	122.062207	0.019032	-1.455481	-0.016849	3.956297
Spine2	-0.000002	0.000000	198.604268	-0.000000	4.493006	-0.000000	2.586962
Neck	0.000000	-0.000000	247.007825	0.297491	5.478449	0.093257	3.162327
Head	-0.000015	-0.000000	104.775290	-0.175874	-4.060744	-0.705126	1.361036
Shoulder.L	41.010071	27.800332	201.741797	-81.536759	5.008627	15.988888	1.460144
UpArm.L	0.117466	13.316634	134.567362	-82.518406	12.487283	-11.850128	3.412631
LowArm.L	0.000000	0.000000	262.668825	-4.150096	24.611435	0.862810	1.706381
Hand.L	-0.000030	-0.000089	256.182086	1.251665	-2.900481	93.083380	2.469438
Mid1.L	-0.543952	-2.746105	82.554371	5.870870	13.914796	-4.286848	0.442826
Mid2.L	-0.000030	-0.000060	34.084145	-2.990212	7.753196	0.200136	0.174624
Rin1.L	0.218332	13.137847	79.132915	-4.664477	24.296854	-14.091150	0.406978
Rin2.L	0.000000	-0.000030	31.325105	2.538030	18.883424	1.472171	0.162051
Pin1.L	1.118183	25.887013	79.463363	-6.502850	31.389724	-18.797695	0.335416
Pin2.L	0.000030	-0.000030	25.816920	3.160667	26.641257	2.067333	0.125631
Ind1.L	-1.472771	-18.929660	80.637515	6.366745	19.096025	-8.675468	0.442753
Ind2.L	0.000000	0.000060	34.078602	-3.536158	12.502640	-0.176700	0.165913
Thu1.L	-3.191650	-22.920072	43.290437	37.523714	-1.101658	9.452499	0.336229
Thu2.L	0.000000	0.000060	25.879371	-3.466530	1.879609	0.849762	0.125995
Shoulder.R.	40.633645	-26.530634	213.580709	81.536759	5.008628	-15.988883	1.460144
UpArm.R.	0.117421	-13.316394	134.567334	84.571290	14.995531	8.690877	3.412630
LowArm.R.	-0.000007	0.000000	262.669114	-0.939266	18.147122	3.030276	1.706382
Hand.R.	-0.000030	0.000030	256.182340	-1.251664	-2.900482	-92.883379	2.469439
Mid1.R	-0.543892	2.746134	82.554317	3.492589	17.927377	10.121872	0.442826
Mid2.R	0.000030	0.000000	34.084138	3.005328	12.040916	0.019132	0.174624
Rin1.R	0.218332	-13.137843	79.132833	7.877480	30.421552	15.621419	0.406978
Rin2.R	0.000000	0.000000	31.324974	-2.683059	25.460207	-1.830241	0.162051
Pin1.R	1.118183	-25.887005	79.463281	4.172920	19.025390	10.727662	0.335416
Pin2.R	0.000030	0.000000	25.816910	-2.923828	13.562034	-1.238519	0.125631
Ind1.R.	-1.472711	18.929655	80.637492	5.591351	22.601217	12.022139	0.442753
Ind2.R.	-0.000015	-0.000030	34.078529	3.589268	17.083385	0.564650	0.165912
Thu1.R.	-3.191589	22.920036	43.290424	-35.951129	-3.697876	-10.453265	0.336229
Thu2.R.	0.000119	-0.000060	25.879373	3.463998	0.441911	-1.237030	0.125995
UpLeg.L	0.000000	94.873809	17.299771	174.415787	24.182955	176.946753	4.473357
LowLeg.L	0.000000	-0.000030	344.311944	7.892541	28.364600	0.995591	2.236683
Foot.L	0.000007	0.000015	381.932733	2.940336	52.017118	174.796942	3.535750
UpLeg.R.	0.000000	-93.110353	17.299771	-177.110361	13.831422	178.777684	4.472163
LowLeg.R.	0.000000	-0.000045	344.302351	-6.889827	33.218978	-6.564881	2.236052
Foot.R.	-0.000007	0.000007	381.826393	14.449929	65.920805	-144.561253	3.535786
[Root]
# Tx<tab>Ty<tab>Tz<tab>Rx<tab>Ry<tab>Rz<tab>BoneScaleFactor<CR>
0	0.000000	-29467.316238	0.003924	0.000000	-0.000000	0.000000	0.025400
1	-0.017993	-29467.045760	0.142022	0.000000	-0.000000	0.000000	0.025400
2	-0.035986	-29466.775331	0.489649	0.000000	-0.000000	0.000000	0.025400
3	-0.053980	-29466.504853	1.045705	0.000000	-0.000000	0.000000	0.025400
[Spine1]
# Tx<tab>Ty<tab>Tz<tab>Rx<tab>Ry<tab>Rz<tab>BoneScaleFactor<CR>
0	0.000000	0.000000	0.000000	0.000000	-0.000000	0.000000	1.000000
1	0.000000	0.000000	0.000000	0.000000	-0.000000	0.000000	1.000000
2	0.000000	0.000000	0.000000	0.000000	-0.000000	0.000000	1.000000
3	-0.000000	0.000000	-0.000060	0.000000	-0.000000	0.000000	1.000000
[Spine2]
# Tx<tab>Ty<tab>Tz<tab>Rx<tab>Ry<tab>Rz<tab>BoneScaleFactor<CR>
0	0.000000	0.000000	0.000000	0.000000	-0.000000	-0.000000	1.000000
1	0.000000	-0.000000	0.000119	0.000021	-0.019857	0.000028	1.000000
2	0.000000	0.000000	0.000060	0.000042	-0.069840	0.000055	1.000000
3	0.000002	-0.000000	0.000000	0.000063	-0.149796	0.000083	1.000000
[Neck]
# Tx<tab>Ty<tab>Tz<tab>Rx<tab>Ry<tab>Rz<tab>BoneScaleFactor<CR>
0	0.000000	0.000000	0.000000	-0.000000	-0.000000	0.000000	1.000000
1	0.000004	0.000000	0.000000	0.000000	0.000001	0.000000	1.000000
2	-0.000007	0.000000	0.000119	0.000000	0.000002	0.000000	1.000000
3	0.000000	0.000000	-0.000119	0.000000	0.000000	0.000000	1.000000
[Head]
# Tx<tab>Ty<tab>Tz<tab>Rx<tab>Ry<tab>Rz<tab>BoneScaleFactor<CR>
0	0.000000	0.000000	0.000000	0.000000	-0.000000	-0.000000	1.000000
1	-0.000015	0.000001	-0.000020	0.039300	0.066367	0.001705	1.000000
2	0.000000	0.000001	0.000099	0.136338	0.230213	0.006361	1.000000
3	0.000015	0.000000	-0.000010	0.283095	0.477941	0.014509	1.000000
[Shoulder.L]
# Tx<tab>Ty<tab>Tz<tab>Rx<tab>Ry<tab>Rz<tab>BoneScaleFactor<CR>
0	0.000000	0.000000	0.000000	-0.000000	0.000000	0.000000	1.000000
1	0.000004	-0.000006	0.000119	-0.000000	0.000005	-0.000000	1.000000
2	0.000000	-0.000004	0.000119	0.000001	0.000005	0.000002	1.000000
3	0.000000	0.000002	0.000000	0.000000	0.000003	0.000002	1.000000
[UpArm.L]
# Tx<tab>Ty<tab>Tz<tab>Rx<tab>Ry<tab>Rz<tab>BoneScaleFactor<CR>
0	0.000000	0.000001	0.000013	0.000000	0.000000	0.000000	1.000000
1	-0.000000	-0.000001	-0.000028	0.063291	-0.001690	0.007561	1.000000
2	-0.000007	-0.000001	-0.000028	0.126554	-0.003379	0.015133	1.000000
3	-0.000000	-0.000001	-0.000028	0.191136	0.002513	0.017216	1.000000
[LowArm.L]
# Tx<tab>Ty<tab>Tz<tab>Rx<tab>Ry<tab>Rz<tab>BoneScaleFactor<CR>
0	0.000000	0.000000	0.000076	-0.000000	0.000000	0.000000	1.000000
1	0.000004	0.000060	0.000051	-0.002988	-0.015178	0.003531	1.000000
2	0.000004	0.000000	0.000111	-0.008773	-0.053441	0.013213	1.000000
3	0.000000	-0.000060	0.000111	-0.017346	-0.114674	0.029028	1.000000
[Hand.L]
# Tx<tab>Ty<tab>Tz<tab>Rx<tab>Ry<tab>Rz<tab>BoneScaleFactor<CR>
0	-0.000000	-0.000000	0.000074	-0.000000	-0.000000	-0.000000	1.000000
1	0.000030	0.000030	-0.000045	0.023323	0.040991	0.050907	1.000000
2	0.000030	-0.000000	0.000074	0.081908	0.138490	0.179201	1.000000
3	-0.000000	0.000060	0.000025	0.175646	0.285376	0.384935	1.000000
[Mid1.L]
# Tx<tab>Ty<tab>Tz<tab>Rx<tab>Ry<tab>Rz<tab>BoneScaleFactor<CR>
0	0.000000	0.000000	0.000000	0.000000	0.000000	0.000000	1.000000
1	0.000060	0.000001	0.000014	0.019682	0.071819	-0.048511	1.000000
2	0.000000	0.000030	0.000022	0.068892	0.252706	-0.170573	1.000000
3	0.000000	0.000001	-0.000046	0.146795	0.542335	-0.365561	1.000000
[Mid2.L]
# Tx<tab>Ty<tab>Tz<tab>Rx<tab>Ry<tab>Rz<tab>BoneScaleFactor<CR>
0	0.000000	0.000000	-0.000003	0.000000	-0.000000	0.000000	1.000000
1	-0.000030	0.000000	-0.000010	0.000007	0.071486	0.000001	1.000000
2	-0.000030	0.000060	-0.000003	0.000002	0.251408	-0.000000	1.000000
3	-0.000030	0.000060	0.000050	0.000004	0.539157	0.000000	1.000000
[Rin1.L]
# Tx<tab>Ty<tab>Tz<tab>Rx<tab>Ry<tab>Rz<tab>BoneScaleFactor<CR>
0	0.000000	0.000000	0.000000	0.000000	0.000000	-0.000000	1.000000
1	-0.000060	-0.000003	-0.000015	-0.002614	-0.020248	0.009718	1.000000
2	-0.000060	-0.000001	0.000052	-0.011651	-0.071814	0.033046	1.000000
3	-0.000060	-0.000003	-0.000015	-0.027079	-0.154519	0.069944	1.000000
[Rin2.L]
# Tx<tab>Ty<tab>Tz<tab>Rx<tab>Ry<tab>Rz<tab>BoneScaleFactor<CR>
0	0.000000	0.000000	-0.000003	0.000000	0.000000	0.000000	1.000000
1	0.000000	0.000030	-0.000069	0.000003	-0.020456	0.000000	1.000000
2	0.000015	0.000030	-0.000003	0.000003	-0.071954	0.000000	1.000000
3	0.000015	-0.000030	-0.000009	0.000002	-0.154318	0.000000	0.999999
[Pin1.L]
# Tx<tab>Ty<tab>Tz<tab>Rx<tab>Ry<tab>Rz<tab>BoneScaleFactor<CR>
0	0.000000	0.000000	0.000000	0.000000	-0.000000	-0.000000	1.000000
1	-0.000000	-0.000005	0.000014	-0.016200	-0.089952	0.038267	1.000000
2	-0.000000	-0.000003	0.000052	-0.057350	-0.316393	0.134693	1.000000
3	-0.000000	-0.000005	0.000014	-0.124016	-0.678550	0.289308	1.000000
[Pin2.L]
# Tx<tab>Ty<tab>Tz<tab>Rx<tab>Ry<tab>Rz<tab>BoneScaleFactor<CR>
0	0.000000	0.000000	0.000000	0.000000	0.000000	-0.000000	1.000000
1	-0.000015	0.000000	-0.000008	-0.000000	-0.090623	-0.000001	1.000000
2	-0.000045	0.000030	-0.000005	0.000001	-0.318692	-0.000000	1.000000
3	-0.000030	-0.000030	-0.000008	-0.000002	-0.683412	-0.000001	1.000000
[Ind1.L]
# Tx<tab>Ty<tab>Tz<tab>Rx<tab>Ry<tab>Rz<tab>BoneScaleFactor<CR>
0	0.000000	0.000000	0.000000	0.000000	-0.000000	0.000000	1.000000
1	0.000060	0.000004	-0.000016	0.019231	0.069676	-0.046665	1.000000
2	0.000000	0.000032	0.000052	0.062150	0.244141	-0.165770	1.000000
3	0.000060	0.000004	0.000014	0.128656	0.523179	-0.356533	1.000000
[Ind2.L]
# Tx<tab>Ty<tab>Tz<tab>Rx<tab>Ry<tab>Rz<tab>BoneScaleFactor<CR>
0	0.000000	-0.000000	-0.000007	-0.000000	0.000000	0.000000	1.000000
1	0.000030	-0.000000	-0.000013	-0.000001	0.068567	-0.000001	1.000000
2	-0.000030	-0.000119	-0.000007	-0.000003	0.241214	-0.000002	1.000000
3	0.000030	-0.000060	-0.000017	-0.000001	0.517463	-0.000001	1.000000
[Thu1.L]
# Tx<tab>Ty<tab>Tz<tab>Rx<tab>Ry<tab>Rz<tab>BoneScaleFactor<CR>
0	0.000000	0.000000	0.000000	0.000000	-0.000000	0.000000	1.000000
1	0.000060	0.000034	-0.000008	-0.000003	-0.000004	-0.000000	1.000000
2	0.000000	0.000032	-0.000004	-0.000003	-0.000003	-0.000002	1.000000
3	0.000001	0.000034	-0.000008	0.000003	-0.000003	0.000001	1.000000
[Thu2.L]
# Tx<tab>Ty<tab>Tz<tab>Rx<tab>Ry<tab>Rz<tab>BoneScaleFactor<CR>
0	0.000000	-0.000000	-0.000005	0.000000	-0.000000	-0.000000	1.000000
1	0.000000	-0.000000	-0.000010	-0.000001	-0.000001	-0.000000	1.000000
2	0.000060	-0.000000	0.000025	-0.000003	-0.000000	0.000000	1.000000
3	0.000000	-0.000000	0.000020	-0.000002	0.000000	0.000002	1.000000
[Shoulder.R.]
# Tx<tab>Ty<tab>Tz<tab>Rx<tab>Ry<tab>Rz<tab>BoneScaleFactor<CR>
0	0.000000	0.000000	0.000000	-0.000000	-0.000000	0.000000	1.000000
1	-0.000004	-0.000006	0.000119	-0.000001	-0.000000	-0.000002	1.000000
2	-0.000007	0.000000	0.000000	-0.000007	-0.000004	0.000001	1.000000
3	0.000000	-0.000002	0.000000	-0.000001	-0.000000	-0.000002	1.000000
[UpArm.R.]
# Tx<tab>Ty<tab>Tz<tab>Rx<tab>Ry<tab>Rz<tab>BoneScaleFactor<CR>
0	0.000000	0.000000	0.000000	-0.000000	-0.000000	0.000000	1.000000
1	0.000000	-0.000238	0.000030	-0.063979	-0.005137	-0.000840	1.000000
2	0.000030	-0.000237	0.000017	-0.127981	-0.010267	-0.001688	1.000000
3	0.000015	-0.000119	0.000015	-0.191958	-0.007542	-0.002569	1.000000
[LowArm.R.]
# Tx<tab>Ty<tab>Tz<tab>Rx<tab>Ry<tab>Rz<tab>BoneScaleFactor<CR>
0	0.000000	0.000000	-0.000025	-0.000000	0.000000	0.000000	1.000000
1	0.000002	0.000000	0.000060	-0.000083	0.024164	0.011286	1.000000
2	0.000004	0.000000	-0.000111	-0.000267	0.084995	0.039700	1.000000
3	0.000004	0.000000	-0.000085	-0.000500	0.182298	0.085146	1.000000
[Hand.R.]
# Tx<tab>Ty<tab>Tz<tab>Rx<tab>Ry<tab>Rz<tab>BoneScaleFactor<CR>
0	0.000000	0.000000	0.000000	-0.000000	0.000000	0.000000	1.000000
1	0.000000	0.000000	0.000000	-0.031106	0.035307	-0.070772	1.000000
2	-0.000030	0.000030	-0.000099	-0.109744	0.123986	-0.248879	1.000000
3	0.000000	0.000030	0.000035	-0.236140	0.265420	-0.534197	1.000000
[Mid1.R]
# Tx<tab>Ty<tab>Tz<tab>Rx<tab>Ry<tab>Rz<tab>BoneScaleFactor<CR>
0	-0.000000	0.000001	0.000024	0.000000	0.000000	-0.000000	1.000000
1	-0.000000	0.000001	0.000032	-0.005265	0.061616	0.026578	1.000000
2	0.000000	0.000029	-0.000016	-0.023461	0.217589	0.091755	1.000000
3	-0.000000	0.000001	0.000076	-0.051682	0.467086	0.196098	1.000000
[Mid2.R]
# Tx<tab>Ty<tab>Tz<tab>Rx<tab>Ry<tab>Rz<tab>BoneScaleFactor<CR>
0	0.000000	0.000000	0.000007	0.000000	-0.000000	0.000000	1.000000
1	-0.000030	-0.000030	0.000007	-0.000003	0.061828	0.000000	1.000000
2	-0.000000	-0.000030	-0.000013	-0.000002	0.217491	0.000000	1.000000
3	0.000000	-0.000060	0.000003	-0.000003	0.466536	0.000000	1.000000
[Rin1.R]
# Tx<tab>Ty<tab>Tz<tab>Rx<tab>Ry<tab>Rz<tab>BoneScaleFactor<CR>
0	0.000000	-0.000004	0.000023	-0.000000	-0.000000	0.000000	1.000000
1	0.000000	-0.000005	0.000031	0.006902	-0.052683	-0.018294	1.000000
2	0.000060	0.000003	-0.000015	0.024374	-0.185295	-0.064367	1.000000
3	0.000000	-0.000003	-0.000044	0.052552	-0.397436	-0.138160	1.000000
[Rin2.R]
# Tx<tab>Ty<tab>Tz<tab>Rx<tab>Ry<tab>Rz<tab>BoneScaleFactor<CR>
0	0.000000	0.000000	0.000009	0.000000	-0.000000	0.000000	1.000000
1	-0.000030	0.000000	0.000009	0.000000	-0.052902	-0.000001	1.000000
2	0.000030	0.000000	-0.000006	-0.000001	-0.186037	-0.000001	1.000000
3	-0.000015	0.000000	0.000069	0.000000	-0.399011	0.000001	1.000000
[Pin1.R]
# Tx<tab>Ty<tab>Tz<tab>Rx<tab>Ry<tab>Rz<tab>BoneScaleFactor<CR>
0	0.000000	-0.000008	0.000023	0.000000	-0.000000	0.000000	1.000000
1	0.000000	-0.000010	-0.000029	-0.007368	0.066165	0.026969	1.000000
2	-0.000000	0.000005	-0.000075	-0.025735	0.232768	0.094845	1.000000
3	0.000000	0.000025	0.000015	-0.054696	0.499347	0.203329	1.000000
[Pin2.R]
# Tx<tab>Ty<tab>Tz<tab>Rx<tab>Ry<tab>Rz<tab>BoneScaleFactor<CR>
0	0.000000	0.000000	0.000005	-0.000000	0.000000	0.000000	1.000000
1	0.000030	-0.000030	0.000005	0.000001	0.066121	-0.000000	1.000000
2	0.000030	0.000000	0.000050	0.000000	0.232600	0.000000	1.000000
3	-0.000060	-0.000030	0.000003	0.000002	0.498965	0.000000	1.000000
[Ind1.R.]
# Tx<tab>Ty<tab>Tz<tab>Rx<tab>Ry<tab>Rz<tab>BoneScaleFactor<CR>
0	-0.000000	0.000006	0.000023	0.000000	-0.000000	-0.000000	1.000000
1	-0.000001	-0.000022	0.000031	-0.003290	0.040979	0.016425	1.000000
2	0.000000	-0.000004	0.000044	-0.016523	0.145084	0.055571	1.000000
3	-0.000000	0.000004	0.000016	-0.037043	0.311550	0.118361	1.000000
[Ind2.R.]
# Tx<tab>Ty<tab>Tz<tab>Rx<tab>Ry<tab>Rz<tab>BoneScaleFactor<CR>
0	-0.000000	-0.000000	0.000010	0.000000	-0.000000	0.000000	1.000000
1	0.000015	0.000030	-0.000050	-0.000000	0.041297	0.000000	1.000000
2	0.000015	0.000030	-0.000007	-0.000000	0.145268	-0.000000	1.000000
3	0.000015	0.000060	0.000003	0.000001	0.311588	-0.000000	1.000000
[Thu1.R.]
# Tx<tab>Ty<tab>Tz<tab>Rx<tab>Ry<tab>Rz<tab>BoneScaleFactor<CR>
0	-0.000001	0.000007	0.000013	-0.000000	-0.000000	-0.000000	1.000000
1	-0.000001	0.000009	0.000017	-0.000000	0.000000	0.000001	1.000000
2	0.000001	0.000025	-0.000008	0.000007	-0.000000	0.000001	1.000000
3	0.000059	0.000004	0.000008	0.000000	0.000001	-0.000001	1.000000
[Thu2.R.]
# Tx<tab>Ty<tab>Tz<tab>Rx<tab>Ry<tab>Rz<tab>BoneScaleFactor<CR>
0	0.000000	-0.000000	0.000005	-0.000000	0.000000	0.000000	1.000000
1	0.000000	0.000060	0.000037	-0.000002	-0.000002	0.000001	1.000000
2	-0.000119	0.000119	0.000022	0.000001	0.000000	0.000002	1.000000
3	-0.000060	0.000089	0.000032	-0.000000	0.000000	0.000002	1.000000
[UpLeg.L]
# Tx<tab>Ty<tab>Tz<tab>Rx<tab>Ry<tab>Rz<tab>BoneScaleFactor<CR>
0	0.000000	0.000000	0.000000	0.000000	-0.000000	-0.000000	1.000000
1	0.000000	0.000000	0.000000	0.004545	0.087771	0.000565	1.000000
2	0.000000	0.000007	0.000000	0.015997	0.175476	0.002003	1.000000
3	0.000000	0.000000	0.000000	0.035023	0.263104	0.004308	1.000000
[LowLeg.L]
# Tx<tab>Ty<tab>Tz<tab>Rx<tab>Ry<tab>Rz<tab>BoneScaleFactor<CR>
0	0.000000	0.000000	0.000000	0.000000	-0.000000	0.000000	1.000000
1	0.000030	0.000015	0.000119	-0.007675	-0.018550	-0.000629	1.000000
2	0.000000	0.000015	0.000000	-0.027023	-0.065489	-0.002196	1.000000
3	-0.000030	0.000000	0.000089	-0.059204	-0.145412	-0.004674	1.000000
[Foot.L]
# Tx<tab>Ty<tab>Tz<tab>Rx<tab>Ry<tab>Rz<tab>BoneScaleFactor<CR>
0	-0.000000	-0.000000	-0.000037	-0.000000	0.000000	0.000000	1.000000
1	-0.000000	-0.000015	-0.000097	-0.002441	0.015086	-0.003104	1.000000
2	0.000007	-0.000007	0.000000	-0.008693	0.029347	-0.011057	1.000000
3	-0.000000	-0.000015	-0.000097	-0.018799	0.042780	-0.023917	1.000000
[UpLeg.R.]
# Tx<tab>Ty<tab>Tz<tab>Rx<tab>Ry<tab>Rz<tab>BoneScaleFactor<CR>
0	0.000000	0.000000	0.000000	0.000000	-0.000000	0.000000	1.000000
1	0.000000	0.000000	0.000000	-0.002930	0.117991	-0.000895	1.000000
2	0.000000	0.000000	0.000000	-0.009774	0.236115	-0.000861	1.000000
3	0.000000	0.000000	0.000000	-0.020826	0.354375	-0.001039	1.000000
[LowLeg.R.]
# Tx<tab>Ty<tab>Tz<tab>Rx<tab>Ry<tab>Rz<tab>BoneScaleFactor<CR>
0	0.000000	0.000000	-0.000033	-0.000000	0.000000	0.000000	1.000000
1	0.000000	0.000015	0.000004	0.006973	-0.034202	0.000135	1.000000
2	-0.000015	0.000030	-0.000063	0.024574	-0.120663	0.000464	1.000000
3	-0.000015	0.000015	-0.000033	0.052830	-0.259631	0.000927	1.000000
[Foot.R.]
# Tx<tab>Ty<tab>Tz<tab>Rx<tab>Ry<tab>Rz<tab>BoneScaleFactor<CR>
0	0.000000	-0.000000	-0.001073	0.000000	-0.000000	-0.000000	0.999997
1	0.000000	-0.000007	-0.001006	-0.000360	-0.028929	-0.000936	0.999997
2	0.000022	-0.000007	-0.001117	-0.000721	-0.057836	-0.001875	0.999997
3	0.000007	-0.000007	-0.001103	-0.001080	-0.086772	-0.002810	0.999997
[EndOfFile]
